# File created by Blade
# Date/Time:  Tue Jan 27 18:05:41 2015
# Frame Rate: 120.000 fps
#------------------------------------------------------
:FULLY-SPECIFIED
:DEGREES
2484
root -1.378467 31.950156 -6.593298 7.611819 20.143147 4.750382
Spine -5.952235 -5.203474 -3.678330
Head -7.703779 -36.438663 -1.436965
LeftShoulder -9.051257 14.265528 9.061953
LeftArm 26.299999 44.254144 -70.249395
LeftForeArm -3.293825 -0.000000 16.163545
LeftHand -11.098459 -0.000000 -5.844272
LeftHandThumb1 -26.253704 0.000000 33.147579
RightShoulder -5.106314 26.227968 -42.023175
RightArm 70.248066 60.559694 96.343683
RightForeArm 33.182920 -0.000000 85.972035
RightHand -4.484689 -0.000000 7.050450
RightHandThumb1 -24.326973 -0.000000 -32.862282
LeftUpLeg -4.093994 -8.285038 -1.033398
LeftLeg 0.545336 -0.000000 -0.000000
LeftFoot -13.068964 12.451522 -23.647110
LeftToeBase 8.486437 -0.000000 -0.000000
RightUpLeg 2.427943 -11.765890 -3.753438
RightLeg -3.897905 -0.000000 0.000000
RightFoot -16.417450 -19.123973 11.510751
RightToeBase 5.301091 -0.000000 -0.000000
2485
root -1.380422 31.950931 -6.589441 7.608536 20.133305 4.748812
Spine -5.943493 -5.204312 -3.661886
Head -7.659034 -36.486386 -1.488076
LeftShoulder -9.073311 14.270153 8.972873
LeftArm 26.298523 44.297739 -70.230818
LeftForeArm -3.263294 -0.000000 16.079399
LeftHand -11.163084 -0.000000 -6.081729
LeftHandThumb1 -26.253704 0.000000 33.147579
RightShoulder -5.046864 26.240951 -42.050848
RightArm 70.688650 60.686272 97.038219
RightForeArm 33.404212 -0.000000 88.320573
RightHand -4.820702 0.000000 6.841863
RightHandThumb1 -24.326973 -0.000000 -32.862282
LeftUpLeg -4.084042 -8.296568 -1.025383
LeftLeg 0.543784 -0.000000 -0.000000
LeftFoot -13.071655 12.459249 -23.670438
LeftToeBase 8.505236 -0.000000 -0.000000
RightUpLeg 2.436006 -11.756387 -3.748411
RightLeg -3.900795 -0.000000 0.000000
RightFoot -16.402284 -19.125751 11.505097
RightToeBase 5.270281 -0.000000 -0.000000
2486
root -1.382795 31.952124 -6.585904 7.608012 20.120621 4.753580
Spine -5.929937 -5.182761 -3.657663
Head -7.639981 -36.565601 -1.527636
LeftShoulder -9.075927 14.258976 8.889793
LeftArm 26.272914 44.336450 -70.215041
LeftForeArm -3.297389 -0.000000 16.024267
LeftHand -11.106088 -0.000000 -6.097261
LeftHandThumb1 -26.253704 0.000000 33.147579
RightShoulder -4.982935 26.212779 -42.051164
RightArm 71.186331 60.818484 97.738824
RightForeArm 33.443682 -0.000000 90.731534
RightHand -4.912640 -0.000000 6.527675
RightHandThumb1 -24.326973 -0.000000 -32.862282
LeftUpLeg -4.078244 -8.270253 -1.028026
LeftLeg 0.548489 -0.000000 -0.000000
LeftFoot -13.069186 12.442205 -23.695807
LeftToeBase 8.515335 -0.000000 -0.000000
RightUpLeg 2.439498 -11.758312 -3.747707
RightLeg -3.900386 -0.000000 0.000000
RightFoot -16.397510 -19.124448 11.489412
RightToeBase 5.279825 -0.000000 -0.000000
2487
root -1.385368 31.953230 -6.582736 7.604325 20.113551 4.754656
Spine -5.913697 -5.183599 -3.646340
Head -7.647123 -36.615516 -1.553135
LeftShoulder -9.091513 14.250889 8.799992
LeftArm 26.243303 44.360243 -70.207414
LeftForeArm -3.287706 0.000000 15.977384
LeftHand -11.129886 -0.000000 -6.113943
LeftHandThumb1 -26.253704 0.000000 33.147579
RightShoulder -4.881847 26.236477 -42.026671
RightArm 71.666147 60.983265 98.403341
RightForeArm 33.582625 -0.000000 93.199613
RightHand -4.892735 -0.000000 6.162638
RightHandThumb1 -24.326973 -0.000000 -32.862282
LeftUpLeg -4.074274 -8.279281 -1.022785
LeftLeg 0.557469 -0.000000 -0.000000
LeftFoot -13.065842 12.444596 -23.710620
LeftToeBase 8.488828 -0.000000 -0.000000
RightUpLeg 2.441186 -11.773340 -3.742021
RightLeg -3.893854 -0.000000 0.000000
RightFoot -16.388142 -19.123788 11.480235
RightToeBase 5.290532 -0.000000 -0.000000
2488
root -1.388479 31.954457 -6.579505 7.607100 20.109558 4.750275
Spine -5.911269 -5.179962 -3.631162
Head -7.624975 -36.693850 -1.607785
LeftShoulder -9.101709 14.267405 8.712037
LeftArm 26.256470 44.392575 -70.169990
LeftForeArm -3.316644 0.000000 15.931382
LeftHand -11.176020 -0.000000 -6.015876
LeftHandThumb1 -26.253704 0.000000 33.147579
RightShoulder -4.773910 26.293163 -41.983951
RightArm 72.190096 61.168027 99.110139
RightForeArm 33.655008 -0.000000 95.701079
RightHand -4.742161 -0.000000 6.030955
RightHandThumb1 -24.326973 -0.000000 -32.862282
LeftUpLeg -4.076717 -8.285895 -1.009598
LeftLeg 0.564046 -0.000000 -0.000000
LeftFoot -13.074430 12.446309 -23.722582
LeftToeBase 8.532760 -0.000000 -0.000000
RightUpLeg 2.436131 -11.778334 -3.730415
RightLeg -3.887956 -0.000000 0.000000
RightFoot -16.384255 -19.118213 11.477749
RightToeBase 5.245584 -0.000000 -0.000000
